<?xml version="1.0" encoding="UTF-8" standalone="no"?>
<!-- Generator: Adobe Illustrator 9.0, SVG Export Plug-In  -->
<svg
   xmlns:a="http://ns.adobe.com/AdobeSVGViewerExtensions/3.0/"
   xmlns:dc="http://purl.org/dc/elements/1.1/"
   xmlns:cc="http://web.resource.org/cc/"
   xmlns:rdf="http://www.w3.org/1999/02/22-rdf-syntax-ns#"
   xmlns:svg="http://www.w3.org/2000/svg"
   xmlns="http://www.w3.org/2000/svg"
   xmlns:xlink="http://www.w3.org/1999/xlink"
   xmlns:sodipodi="http://sodipodi.sourceforge.net/DTD/sodipodi-0.dtd"
   xmlns:inkscape="http://www.inkscape.org/namespaces/inkscape"
   sodipodi:docbase="/home/cbn/programs/kst/graphics/kst/src/kst/pics/svg_icons"
   sodipodi:docname="changefile2.svg"
   inkscape:version="0.44"
   sodipodi:version="0.32"
   id="svg2"
   xml:space="preserve"
   viewBox="0 0 144 144"
   height="22"
   width="22"
   inkscape:export-filename="/home/cbn/programs/kst/graphics/kst/src/kst/pics/svg_icons/changefile.png"
   inkscape:export-xdpi="90"
   inkscape:export-ydpi="90"
   version="1.0"><metadata
   id="metadata97">
  <rdf:RDF>
    <cc:Work
   rdf:about="">
      <dc:format>image/svg+xml</dc:format>








      <dc:type
   rdf:resource="http://purl.org/dc/dcmitype/StillImage" />








    </cc:Work>








  </rdf:RDF>








</metadata>








<defs
   id="defs95"><linearGradient
   gradientUnits="userSpaceOnUse"
   y2="120.81465"
   x2="74.771782"
   y1="82.644012"
   x1="35.040684"
   gradientTransform="matrix(1.237558,0,0,0.995559,-1.877239,-26.02432)"
   id="linearGradient3061"
   xlink:href="#XMLID_11_"
   inkscape:collect="always" />

  <linearGradient
   id="linearGradient3063">
    <stop
   id="stop3065"
   offset="0.0000000"
   style="stop-color:#ed0000;stop-opacity:1.0000000;" />








    <stop
   id="stop3067"
   offset="1.0000000"
   style="stop-color:#600606;stop-opacity:1.0000000;" />








  </linearGradient>








  <linearGradient
   id="linearGradient11811">
  <stop
   offset="0.0000000"
   style="stop-color:#ffffff;stop-opacity:1.0000000;"
   id="stop11815" />









  <stop
   offset="1.0000000"
   style="stop-color:#969696;stop-opacity:1.0000000;"
   id="stop11813" />









</linearGradient>








  <linearGradient
   inkscape:collect="always"
   xlink:href="#linearGradient11811"
   id="linearGradient11809"
   gradientTransform="matrix(1.329402,0,0,1.332391,-22.9054,-1.200697)"
   x1="67.847618"
   y1="41.576416"
   x2="137.1109"
   y2="106.31395"
   gradientUnits="userSpaceOnUse" />








  <linearGradient
   id="XMLID_14_"
   gradientUnits="userSpaceOnUse"
   x1="47.485802"
   y1="134.56641"
   x2="86.466103"
   y2="48.025799">
				<stop
   offset="0"
   style="stop-color:#FFFFE8"
   id="stop214" />










				<stop
   offset="1"
   style="stop-color:#FFBD00"
   id="stop216" />










				<a:midPointStop
   offset="0"
   style="stop-color:#FFFFE8"
   id="midPointStop218" />










				<a:midPointStop
   offset="0.5"
   style="stop-color:#FFFFE8"
   id="midPointStop220" />










				<a:midPointStop
   offset="1"
   style="stop-color:#FFBD00"
   id="midPointStop222" />










			</linearGradient>








  <linearGradient
   id="XMLID_13_"
   gradientUnits="userSpaceOnUse"
   x1="57.796902"
   y1="125.002"
   x2="89.6707"
   y2="56.105701">
				<stop
   offset="0"
   style="stop-color:#FFFFD9"
   id="stop201" />










				<stop
   offset="1"
   style="stop-color:#FF9A2B"
   id="stop203" />










				<a:midPointStop
   offset="0"
   style="stop-color:#FFFFD9"
   id="midPointStop205" />










				<a:midPointStop
   offset="0.5"
   style="stop-color:#FFFFD9"
   id="midPointStop207" />










				<a:midPointStop
   offset="1"
   style="stop-color:#FF9A2B"
   id="midPointStop209" />










			</linearGradient>








  <linearGradient
   id="XMLID_12_"
   gradientUnits="userSpaceOnUse"
   x1="44.959499"
   y1="124.2344"
   x2="77.322899"
   y2="53.868401">
				<stop
   offset="0"
   style="stop-color:#FFFFFF"
   id="stop188" />










				<stop
   offset="1"
   style="stop-color:#FFEB00"
   id="stop190" />










				<a:midPointStop
   offset="0"
   style="stop-color:#FFFFFF"
   id="midPointStop192" />










				<a:midPointStop
   offset="0.5"
   style="stop-color:#FFFFFF"
   id="midPointStop194" />










				<a:midPointStop
   offset="1"
   style="stop-color:#FFEB00"
   id="midPointStop196" />










			</linearGradient>








  <linearGradient
   id="XMLID_11_"
   gradientUnits="userSpaceOnUse"
   x1="-1082.2324"
   y1="1066.7666"
   x2="-1072.7567"
   y2="1066.5565"
   gradientTransform="matrix(0.9121,0.4099,-0.4099,0.9121,1486.123,-457.4578)">
				<stop
   offset="0"
   style="stop-color:#c28400;stop-opacity:1;"
   id="stop173" />










				<stop
   offset="1"
   style="stop-color:#983700;stop-opacity:1;"
   id="stop175" />










				<a:midPointStop
   offset="0"
   style="stop-color:#FFAE00"
   id="midPointStop177" />










				<a:midPointStop
   offset="0.5"
   style="stop-color:#FFAE00"
   id="midPointStop179" />










				<a:midPointStop
   offset="1"
   style="stop-color:#BB4400"
   id="midPointStop181" />










			</linearGradient>








  

  

  

  

  

  

  

  

  

  

<linearGradient
   gradientUnits="userSpaceOnUse"
   y2="89.822556"
   x2="100.64559"
   y1="89.822556"
   x1="8.5120258"
   gradientTransform="scale(1.329341,0.752252)"
   id="linearGradient2169"
   xlink:href="#linearGradient3063"
   inkscape:collect="always" />






<linearGradient
   inkscape:collect="always"
   xlink:href="#aigrd1"
   id="linearGradient1945"
   gradientUnits="userSpaceOnUse"
   x1="19.882799"
   y1="91.013199"
   x2="134.8701"
   y2="91.013199" />

<linearGradient
   inkscape:collect="always"
   xlink:href="#aigrd2"
   id="linearGradient1947"
   gradientUnits="userSpaceOnUse"
   x1="92.430702"
   y1="97.638199"
   x2="42.798901"
   y2="77.129303" />

<linearGradient
   inkscape:collect="always"
   xlink:href="#aigrd3"
   id="linearGradient1949"
   gradientUnits="userSpaceOnUse"
   x1="0.84960002"
   y1="59.8013"
   x2="110.4102"
   y2="59.8013" />

<linearGradient
   inkscape:collect="always"
   xlink:href="#aigrd4"
   id="linearGradient1951"
   gradientUnits="userSpaceOnUse"
   x1="20.6514"
   y1="58.9077"
   x2="77.592796"
   y2="58.9077" />

<linearGradient
   inkscape:collect="always"
   xlink:href="#aigrd5"
   id="linearGradient1953"
   gradientUnits="userSpaceOnUse"
   x1="35.242199"
   y1="64.310997"
   x2="93.570801"
   y2="72.519798" />

<linearGradient
   inkscape:collect="always"
   xlink:href="#aigrd6"
   id="linearGradient1955"
   gradientUnits="userSpaceOnUse"
   x1="73.843803"
   y1="108.4019"
   x2="127.6324"
   y2="82.479599" />

<linearGradient
   inkscape:collect="always"
   xlink:href="#aigrd7"
   id="linearGradient1957"
   gradientUnits="userSpaceOnUse"
   x1="87.227501"
   y1="113.1079"
   x2="121.3573"
   y2="93.234596" />

<linearGradient
   inkscape:collect="always"
   xlink:href="#aigrd8"
   id="linearGradient1959"
   gradientUnits="userSpaceOnUse"
   x1="104.9521"
   y1="79.861801"
   x2="37.898899"
   y2="53.945599" />

<linearGradient
   inkscape:collect="always"
   xlink:href="#aigrd9"
   id="linearGradient1961"
   gradientUnits="userSpaceOnUse"
   x1="70.862297"
   y1="54.118698"
   x2="105.8568"
   y2="73.559998" />

<linearGradient
   inkscape:collect="always"
   xlink:href="#linearGradient11811"
   id="linearGradient3080"
   gradientUnits="userSpaceOnUse"
   gradientTransform="matrix(1.32935,0,0,1.33464,-22.90168,-1.443019)"
   x1="67.847618"
   y1="41.576416"
   x2="137.1109"
   y2="106.31395" /></defs>








<sodipodi:namedview
   showgrid="true"
   gridtolerance="2.0000000px"
   gridoriginx="0.0000000px"
   gridoriginy="0.0000000px"
   gridspacingx="1px"
   gridspacingy="1px"
   inkscape:document-units="px"
   inkscape:current-layer="svg2"
   inkscape:window-y="0"
   inkscape:window-x="0"
   inkscape:zoom="3.2183092"
   inkscape:cx="56.888402"
   inkscape:cy="72.007916"
   inkscape:window-height="718"
   inkscape:window-width="1266"
   inkscape:pageshadow="2"
   inkscape:pageopacity="0.0"
   borderopacity="1.0"
   bordercolor="#666666"
   pagecolor="#ffffff"
   id="base"
   gridempspacing="4"
   inkscape:grid-points="false"
   guidetolerance="2.0000000px"
   width="22px"
   height="22px" />









	<rect
   style="fill:url(#linearGradient3080);fill-opacity:1;fill-rule:evenodd;stroke:black;stroke-width:6.55619192;stroke-linecap:round;stroke-linejoin:miter;stroke-miterlimit:4;stroke-dasharray:none;stroke-opacity:1"
   id="rect8727"
   width="137.4438"
   height="137.4438"
   x="3.278096"
   y="3.2780936" />










































































































































<path
   style="fill:none;fill-opacity:0.75;fill-rule:evenodd;stroke:black;stroke-width:8.92959595;stroke-linecap:butt;stroke-linejoin:miter;stroke-miterlimit:4;stroke-opacity:1"
   d="M 125.9648,107.9648 C 138.10461,108.0352 138.10461,108.0352 138.10461,108.0352 L 139.5352,108.01618"
   id="path13486"
   sodipodi:nodetypes="ccc" />











<path
   sodipodi:nodetypes="cc"
   id="path2295"
   d="M 6.619431,121.04749 C 83.084003,120.48269 55.747835,23.455947 137.47287,23.008919"
   style="fill:none;fill-opacity:0.75;fill-rule:evenodd;stroke:url(#linearGradient3061);stroke-width:9.98985863;stroke-linecap:butt;stroke-linejoin:miter;stroke-miterlimit:4;stroke-opacity:1" />


<path
   style="fill:none;fill-opacity:0.75;fill-rule:evenodd;stroke:black;stroke-width:6.47786522;stroke-linecap:butt;stroke-linejoin:miter;stroke-miterlimit:4;stroke-opacity:1"
   d="M 68.761067,1.8357715 C 68.693478,14.862715 68.693478,14.862715 68.693478,14.862715 L 68.698909,16.397431"
   id="path1964"
   sodipodi:nodetypes="ccc" /><path
   style="fill:none;fill-opacity:0.75;fill-rule:evenodd;stroke:black;stroke-width:6.47085953;stroke-linecap:butt;stroke-linejoin:miter;stroke-miterlimit:4;stroke-opacity:1"
   d="M 36.037298,3.2354301 C 35.962702,15.013366 35.962702,15.013366 35.962702,15.013366 L 35.968698,16.400934"
   id="path1966"
   sodipodi:nodetypes="ccc" /><path
   style="fill:none;fill-opacity:0.75;fill-rule:evenodd;stroke:black;stroke-width:6.47086191;stroke-linecap:butt;stroke-linejoin:miter;stroke-miterlimit:4;stroke-opacity:1"
   d="M 101.49185,3.2354306 C 101.41725,15.013365 101.41725,15.013365 101.41725,15.013365 L 101.42325,16.400933"
   id="path1968"
   sodipodi:nodetypes="ccc" /><g
   id="Layer_x0020_2"
   style="fill:white;fill-rule:nonzero;stroke:white;stroke-width:0;stroke-miterlimit:4"
   transform="matrix(0.88,0,0,0.88,9,-0.72)">
		<path
   style="fill:none;stroke:none"
   d="M 144,144 L 0,144 L 0,0 L 144,0 L 144,144 z "
   id="path1796" />


		<path
   style="opacity:0.2;fill:black;stroke:none"
   d="M 142.619,92.638 L 110.871,15.87 C 110.469,14.896 109.689,14.123 108.711,13.731 C 107.732,13.338 106.637,13.355 105.672,13.782 L 78.459,25.812 C 77.038,26.44 76.13,27.84 76.13,29.386 C 76.13,29.397 76.151,30.17 76.182,31.293 L 58.131,23.953 C 56.654,23.351 54.961,23.707 53.85,24.85 L 6.93,73.137 C 6.035,74.059 5.649,75.36 5.897,76.619 C 6.145,77.881 6.995,78.939 8.172,79.453 L 26.542,87.474 L 18.74,91.648 C 17.619,92.248 16.861,93.353 16.703,94.615 C 16.544,95.875 17.008,97.135 17.945,97.992 L 61.802,138.081 C 63.037,139.21 64.847,139.43 66.314,138.627 L 140.233,98.219 C 140.68,97.975 141.048,97.633 141.363,97.248 C 142.76,96.187 143.308,94.302 142.619,92.638 z "
   id="path1798" />


		<g
   style="stroke:none"
   id="g1800">
			<path
   id="path7"
   d="M 59.217,131.637 L 14.252,90.533 L 14.072,89.448 L 89.907,48.883 L 135.406,89.987 L 59.217,131.637 L 59.217,131.637 z " />


			<linearGradient
   id="aigrd1"
   gradientUnits="userSpaceOnUse"
   x1="19.882799"
   y1="91.013199"
   x2="134.8701"
   y2="91.013199">
				<stop
   offset="0"
   style="stop-color:#CFF0FF"
   id="stop1804" />


				<stop
   offset="1"
   style="stop-color:#6DB8FF"
   id="stop1806" />


			</linearGradient>


			<path
   id="path11"
   style="fill:url(#linearGradient1945)"
   d="M 62.666,129.227 L 20.053,91.266 L 19.883,90.263 L 91.748,52.799 L 134.87,90.758 L 62.666,129.227 L 62.666,129.227 z " />


			<linearGradient
   id="aigrd2"
   gradientUnits="userSpaceOnUse"
   x1="92.430702"
   y1="97.638199"
   x2="42.798901"
   y2="77.129303">
				<stop
   offset="0"
   style="stop-color:#0032A4"
   id="stop1810" />


				<stop
   offset="1"
   style="stop-color:#3995E5"
   id="stop1812" />


			</linearGradient>


			<path
   style="fill:url(#linearGradient1947)"
   d="M 92.355,47.463 L 135.931,86.83 C 136.872,87.68 137.343,88.934 137.195,90.193 C 137.047,91.452 136.299,92.563 135.185,93.172 L 61.268,133.58 C 59.8,134.383 57.991,134.163 56.756,133.035 L 12.898,92.946 C 11.96,92.089 11.496,90.829 11.655,89.568 C 11.814,88.307 12.572,87.202 13.693,86.602 L 87.882,46.915 C 89.339,46.136 91.128,46.355 92.355,47.463 L 92.355,47.463 z M 89.729,50.368 C 88.289,51.138 17.279,89.125 15.538,90.055 C 16.457,90.893 58.175,129.031 59.395,130.144 C 60.839,129.357 130.411,91.322 133.309,89.738 C 130.902,87.565 90.914,51.439 89.731,50.368 L 89.729,50.369 L 89.729,50.368 z "
   id="path1814" />


			<path
   id="path20"
   style="opacity:0.15;fill:#000047"
   d="M 102.805,61.723 L 67.213,106.431 L 21.156,86.969 L 90.732,51.973 L 102.804,61.723 L 102.805,61.723 z " />


			<path
   id="path21"
   d="M 50.485,22.96 L 106.031,45.549 L 63.406,98.047 L 3.107,71.717 L 50.485,22.96 z " />


			<linearGradient
   id="aigrd3"
   gradientUnits="userSpaceOnUse"
   x1="0.84960002"
   y1="59.8013"
   x2="110.4102"
   y2="59.8013">
				<stop
   offset="0"
   style="stop-color:#BFBFBF"
   id="stop1819" />


				<stop
   offset="1"
   style="stop-color:#7084CC"
   id="stop1821" />


			</linearGradient>


			<path
   style="fill:url(#linearGradient1949)"
   d="M 48.803,19.804 L 1.883,68.09 C 0.988,69.011 0.602,70.313 0.85,71.572 C 1.097,72.833 1.948,73.891 3.124,74.406 L 62.839,100.48 C 64.451,101.184 66.335,100.726 67.445,99.361 L 109.657,47.371 C 110.439,46.407 110.719,45.131 110.41,43.93 C 110.101,42.729 109.242,41.744 108.093,41.278 L 53.084,18.906 C 51.607,18.305 49.913,18.661 48.803,19.804 L 48.803,19.804 z "
   id="path1823" />


			<path
   d="M 51.609,22.532 L 106.618,44.904 L 64.405,96.893 L 4.69,70.818 L 51.609,22.532 L 51.609,22.532 z "
   id="path1825" />


			<linearGradient
   id="aigrd4"
   gradientUnits="userSpaceOnUse"
   x1="20.6514"
   y1="58.9077"
   x2="77.592796"
   y2="58.9077">
				<stop
   offset="0"
   style="stop-color:#FFFFFF"
   id="stop1828" />


				<stop
   offset="1"
   style="stop-color:#DFDFEC"
   id="stop1830" />


			</linearGradient>


			<path
   id="path25"
   style="fill:url(#linearGradient1951)"
   d="M 51.77,27.608 L 98.42,46.473 L 62.914,90.209 L 12.678,68.275 L 51.77,27.606 L 51.77,27.608 z " />


			<linearGradient
   id="aigrd5"
   gradientUnits="userSpaceOnUse"
   x1="35.242199"
   y1="64.310997"
   x2="93.570801"
   y2="72.519798">
				<stop
   offset="0"
   style="stop-color:#FFFFFF"
   id="stop1834" />


				<stop
   offset="0.2022"
   style="stop-color:#CDF8FF"
   id="stop1836" />


				<stop
   offset="1"
   style="stop-color:#0074FF"
   id="stop1838" />


			</linearGradient>


			<path
   style="opacity:0.6;fill:url(#linearGradient1953)"
   d="M 74.119,36.583 L 73.762,23.546 L 102.847,10.689 L 135.499,89.646 L 60.021,130.934 L 29.333,57.953 L 74.119,36.584 L 74.119,36.583 z "
   id="path1840" />


			<linearGradient
   id="aigrd6"
   gradientUnits="userSpaceOnUse"
   x1="73.843803"
   y1="108.4019"
   x2="127.6324"
   y2="82.479599">
				<stop
   offset="0"
   style="stop-color:#FFFFFF"
   id="stop1843" />


				<stop
   offset="1"
   style="stop-color:#B1B1C5"
   id="stop1845" />


			</linearGradient>


			<path
   id="path38"
   style="fill:url(#linearGradient1955)"
   d="M 126.39,67.293 L 49.84,105.684 L 59.845,130.934 L 135.68,90.004 L 126.39,67.293 L 126.39,67.293 z " />


			<path
   id="path39"
   style="opacity:0.75"
   d="M 77.706,39.252 L 77.364,26.812 L 104.545,14.797 L 102.847,10.689 L 73.762,23.546 L 74.119,36.583 L 29.333,57.953 L 60.021,130.934 L 64.023,128.744 L 34.965,59.645 L 77.706,39.252 z " />


			<linearGradient
   id="aigrd7"
   gradientUnits="userSpaceOnUse"
   x1="87.227501"
   y1="113.1079"
   x2="121.3573"
   y2="93.234596">
				<stop
   offset="0"
   style="stop-color:#FFFFFF"
   id="stop1850" />


				<stop
   offset="0.1066"
   style="stop-color:#DDDDE7"
   id="stop1852" />


				<stop
   offset="0.2778"
   style="stop-color:#AEAEC4"
   id="stop1854" />


				<stop
   offset="0.4407"
   style="stop-color:#8888A9"
   id="stop1856" />


				<stop
   offset="0.5909"
   style="stop-color:#6D6D96"
   id="stop1858" />


				<stop
   offset="0.7239"
   style="stop-color:#5D5D8A"
   id="stop1860" />


				<stop
   offset="0.8258"
   style="stop-color:#575786"
   id="stop1862" />


			</linearGradient>


			<path
   id="path43"
   style="opacity:0.46000001;fill:url(#linearGradient1957)"
   d="M 134.839,85.161 L 58.963,125.476 L 60.822,129.34 L 136.658,88.412 L 134.839,85.16 L 134.839,85.161 z " />


			<linearGradient
   id="aigrd8"
   gradientUnits="userSpaceOnUse"
   x1="104.9521"
   y1="79.861801"
   x2="37.898899"
   y2="53.945599">
				<stop
   offset="0"
   style="stop-color:#0032A4"
   id="stop1866" />


				<stop
   offset="1"
   style="stop-color:#3995E5"
   id="stop1868" />


			</linearGradient>


			<path
   style="fill:url(#linearGradient1959)"
   d="M 103.664,8.683 C 104.643,9.076 105.422,9.849 105.824,10.823 L 137.572,87.591 C 138.336,89.438 137.588,91.568 135.835,92.527 L 62.494,132.646 C 61.521,133.177 60.371,133.273 59.324,132.908 C 58.279,132.543 57.437,131.752 57.008,130.73 L 27.297,60.081 C 27.089,59.586 26.99,59.071 26.99,58.563 C 26.99,57.098 27.816,55.7 29.219,55.031 C 29.219,55.031 63.564,38.641 71.369,34.917 C 71.361,34.625 71.082,24.376 71.082,24.34 C 71.082,22.794 71.99,21.394 73.411,20.765 L 100.625,8.735 C 101.59,8.308 102.685,8.291 103.664,8.684 L 103.664,8.683 z M 102.205,12.317 C 100.18,13.21 76.363,23.739 74.998,24.344 C 75.035,25.797 75.331,36.573 75.331,36.583 C 75.331,37.059 75.06,37.494 74.635,37.695 C 74.635,37.695 32.924,57.597 30.906,58.562 C 31.781,60.642 59.625,126.853 60.615,129.208 C 62.851,127.985 132.099,90.105 133.957,89.09 C 133.139,87.116 103.113,14.519 102.205,12.316 L 102.205,12.317 z "
   id="path1870" />


			<linearGradient
   id="aigrd9"
   gradientUnits="userSpaceOnUse"
   x1="70.862297"
   y1="54.118698"
   x2="105.8568"
   y2="73.559998">
				<stop
   offset="0"
   style="stop-color:#A8DCFF"
   id="stop1873" />


				<stop
   offset="0.3202"
   style="stop-color:#3C64B4"
   id="stop1875" />


				<stop
   offset="0.9888"
   style="stop-color:#000000"
   id="stop1877" />


			</linearGradient>


			<path
   id="path52"
   style="opacity:0.3;fill:url(#linearGradient1961)"
   d="M 53.443,103.654 C 53.443,103.654 51.394,77.481 81.424,60.065 C 111.39,42.685 102.204,12.318 102.204,12.318 L 125.07,67.51 L 53.443,103.654 z " />


		</g>


	</g><path
   style="fill:none;fill-opacity:0.75;fill-rule:evenodd;stroke:black;stroke-width:9.80699539;stroke-linecap:butt;stroke-linejoin:miter;stroke-miterlimit:4;stroke-opacity:1"
   d="M 72.573396,125.8192 C 72.403498,137.69715 72.403498,137.69715 72.403498,137.69715 L 72.417154,139.0965"
   id="path1970"
   sodipodi:nodetypes="ccc" /><path
   style="fill:none;fill-opacity:0.75;fill-rule:evenodd;stroke:black;stroke-width:9.80699539;stroke-linecap:butt;stroke-linejoin:miter;stroke-miterlimit:4;stroke-opacity:1"
   d="M 36.573396,125.8192 C 36.403498,137.69715 36.403498,137.69715 36.403498,137.69715 L 36.417154,139.0965"
   id="path1972"
   sodipodi:nodetypes="ccc" /><path
   style="fill:none;fill-opacity:0.75;fill-rule:evenodd;stroke:black;stroke-width:9.80699539;stroke-linecap:butt;stroke-linejoin:miter;stroke-miterlimit:4;stroke-opacity:1"
   d="M 108.5734,125.8192 C 108.4035,137.69715 108.4035,137.69715 108.4035,137.69715 L 108.41715,139.0965"
   id="path1974"
   sodipodi:nodetypes="ccc" /><path
   style="fill:none;fill-opacity:0.75;fill-rule:evenodd;stroke:black;stroke-width:8.92959595;stroke-linecap:butt;stroke-linejoin:miter;stroke-miterlimit:4;stroke-opacity:1"
   d="M 125.9648,71.964802 C 138.10461,72.035202 138.10461,72.035202 138.10461,72.035202 L 139.5352,72.016182"
   id="path1976"
   sodipodi:nodetypes="ccc" /><path
   style="fill:none;fill-opacity:0.75;fill-rule:evenodd;stroke:black;stroke-width:8.92959595;stroke-linecap:butt;stroke-linejoin:miter;stroke-miterlimit:4;stroke-opacity:1"
   d="M 125.9648,35.964802 C 138.10461,36.035202 138.10461,36.035202 138.10461,36.035202 L 139.5352,36.016182"
   id="path1978"
   sodipodi:nodetypes="ccc" /><path
   style="fill:none;fill-opacity:0.75;fill-rule:evenodd;stroke:black;stroke-width:6.50681734;stroke-linecap:butt;stroke-linejoin:miter;stroke-miterlimit:4;stroke-opacity:1"
   d="M 3.2534125,107.98068 C 14.998841,108.01932 14.998841,108.01932 14.998841,108.01932 L 16.382955,108.00888"
   id="path1980"
   sodipodi:nodetypes="ccc" /><path
   style="fill:none;fill-opacity:0.75;fill-rule:evenodd;stroke:black;stroke-width:6.50682068;stroke-linecap:butt;stroke-linejoin:miter;stroke-miterlimit:4;stroke-opacity:1"
   d="M 3.2534103,68.707955 C 14.998838,68.74659 14.998838,68.74659 14.998838,68.74659 L 16.382953,68.736151"
   id="path1982"
   sodipodi:nodetypes="ccc" /><path
   style="fill:none;fill-opacity:0.75;fill-rule:evenodd;stroke:black;stroke-width:6.50681973;stroke-linecap:butt;stroke-linejoin:miter;stroke-miterlimit:4;stroke-opacity:1"
   d="M 3.2534097,35.980683 C 14.998839,36.019316 14.998839,36.019316 14.998839,36.019316 L 16.382954,36.00888"
   id="path1984"
   sodipodi:nodetypes="ccc" /></svg>